<?xml version="1.0" encoding="UTF-8"?>
<svg width="1601px" height="1319px" viewBox="0 0 1601 1319" version="1.1" xmlns="http://www.w3.org/2000/svg" xmlns:xlink="http://www.w3.org/1999/xlink">
    <!-- Generator: Sketch 46.2 (44496) - http://www.bohemiancoding.com/sketch -->
    <title>Group</title>
    <desc>Created with Sketch.</desc>
    <defs></defs>
    <g id="Page-1" stroke="none" stroke-width="1" fill="none" fill-rule="evenodd">
        <g id="Group" transform="translate(0.000000, 1.000000)">
            <path d="M1068,437 C1064.13401,437 1061,440.134007 1061,444 L1061,483.999487 C1061,487.865481 1064.13401,490.999487 1068,490.999487 L1247.99996,490.999487 C1251.86595,490.999487 1254.99996,487.865481 1254.99996,483.999487 L1254.99996,444 C1254.99996,440.134007 1251.86595,437 1247.99996,437 L1068,437 Z" id="Rectangle-2" stroke="#000000" stroke-width="2"></path>
            <path d="M8,648.000513 C4.13400675,648.000513 1,651.134519 1,655.000513 L1,695 C1,698.865993 4.13400675,702 8,702 L187.999956,702 C191.865949,702 194.999956,698.865993 194.999956,695 L194.999956,655.000513 C194.999956,651.134519 191.865949,648.000513 187.999956,648.000513 L8,648.000513 Z" id="Rectangle-2" stroke="#000000" stroke-width="2"></path>
            <path d="M472,417 C468.134007,417 465,420.134007 465,424 L465,463.999487 C465,467.865481 468.134007,470.999487 472,470.999487 L651.999956,470.999487 C655.865949,470.999487 658.999956,467.865481 658.999956,463.999487 L658.999956,424 C658.999956,420.134007 655.865949,417 651.999956,417 L472,417 Z" id="Rectangle-2" stroke="#000000" stroke-width="2"></path>
            <text id="LGPL" font-family="PingFangSC-Regular, PingFang SC" font-size="18" font-weight="normal" fill="#040404">
                <tspan x="69" y="682">LGPL</tspan>
            </text>
            <path d="M9,899 C5.13400675,899 2,902.134007 2,906 L2,945.999487 C2,949.865481 5.13400675,952.999487 9,952.999487 L188.999956,952.999487 C192.865949,952.999487 195.999956,949.865481 195.999956,945.999487 L195.999956,906 C195.999956,902.134007 192.865949,899 188.999956,899 L9,899 Z" id="Rectangle-2" stroke="#000000" stroke-width="2"></path>
            <path d="M9,1015 C5.13400675,1015 2,1018.13401 2,1022 L2,1061.99949 C2,1065.86548 5.13400675,1068.99949 9,1068.99949 L188.999956,1068.99949 C192.865949,1068.99949 195.999956,1065.86548 195.999956,1061.99949 L195.999956,1022 C195.999956,1018.13401 192.865949,1015 188.999956,1015 L9,1015 Z" id="Rectangle-2" stroke="#000000" stroke-width="2"></path>
            <text id="AGPL" font-family="PingFangSC-Regular, PingFang SC" font-size="18" font-weight="normal" fill="#040404">
                <tspan x="65" y="1047">AGPL</tspan>
            </text>
            <path d="M8,766 C4.13400675,766 1,769.134007 1,773 L1,812.999487 C1,816.865481 4.13400675,819.999487 8,819.999487 L187.999956,819.999487 C191.865949,819.999487 194.999956,816.865481 194.999956,812.999487 L194.999956,773 C194.999956,769.134007 191.865949,766 187.999956,766 L8,766 Z" id="Rectangle-2" stroke="#000000" stroke-width="2"></path>
            <path d="M472,15 C468.134007,15 465,18.1340068 465,22 L465,61.9994874 C465,65.8654806 468.134007,68.9994874 472,68.9994874 L651.999956,68.9994874 C655.865949,68.9994874 658.999956,65.8654806 658.999956,61.9994874 L658.999956,22 C658.999956,18.1340068 655.865949,15 651.999956,15 L472,15 Z" id="Rectangle-2" stroke="#000000" stroke-width="2"></path>
            <path d="M1064,15 C1060.13401,15 1057,18.1340068 1057,22 L1057,61.9994874 C1057,65.8654806 1060.13401,68.9994874 1064,68.9994874 L1243.99996,68.9994874 C1247.86595,68.9994874 1250.99996,65.8654806 1250.99996,61.9994874 L1250.99996,22 C1250.99996,18.1340068 1247.86595,15 1243.99996,15 L1064,15 Z" id="Rectangle-2" stroke="#000000" stroke-width="2"></path>
            <text id="WTFPL" font-family="PingFangSC-Regular, PingFang SC" font-size="18" font-weight="normal" fill="#040404">
                <tspan x="531" y="47">WTFPL</tspan>
            </text>
            <path d="M1313,434 C1309.13401,434 1306,437.134007 1306,441 L1306,480.999487 C1306,484.865481 1309.13401,487.999487 1313,487.999487 L1492.99996,487.999487 C1496.86595,487.999487 1499.99996,484.865481 1499.99996,480.999487 L1499.99996,441 C1499.99996,437.134007 1496.86595,434 1492.99996,434 L1313,434 Z" id="Rectangle-2" stroke="#000000" stroke-width="2"></path>
            <path d="M771,1262 C767.134007,1262 764,1265.13401 764,1269 L764,1308.99949 C764,1312.86548 767.134007,1315.99949 771,1315.99949 L950.999956,1315.99949 C954.865949,1315.99949 957.999956,1312.86548 957.999956,1308.99949 L957.999956,1269 C957.999956,1265.13401 954.865949,1262 950.999956,1262 L771,1262 Z" id="Rectangle-2" stroke="#000000" stroke-width="2"></path>
            <path d="M1413,923 C1409.13401,923 1406,926.134007 1406,930 L1406,969.999487 C1406,973.865481 1409.13401,976.999487 1413,976.999487 L1592.99996,976.999487 C1596.86595,976.999487 1599.99996,973.865481 1599.99996,969.999487 L1599.99996,930 C1599.99996,926.134007 1596.86595,923 1592.99996,923 L1413,923 Z" id="Rectangle-2" stroke="#000000" stroke-width="2"></path>
            <path d="M799,588 L570,751" id="Line-10" stroke="#000000" stroke-width="2" stroke-linecap="square"></path>
            <path id="Line-10-decoration-1" d="M570,751 L580.538368,747.181256 L577.05902,742.293093 L570,751 Z" stroke="#000000" stroke-width="2" stroke-linecap="square"></path>
            <path d="M586,479 L793,536" id="Line-10" stroke="#000000" stroke-width="2" stroke-linecap="square"></path>
            <path id="Line-10-decoration-1" d="M793,536 L783.383991,530.240455 L781.791103,536.025151 L793,536 Z" stroke="#000000" stroke-width="2" stroke-linecap="square"></path>
            <path d="M856,364 L856,510" id="Line-10" stroke="#000000" stroke-width="2" stroke-linecap="square"></path>
            <path id="Line-10-decoration-1" d="M856,510 L859,499.2 L853,499.2 L856,510 Z" stroke="#000000" stroke-width="2" stroke-linecap="square"></path>
            <path d="M790,326 L591,408" id="Line-10" stroke="#000000" stroke-width="2" stroke-linecap="square"></path>
            <path id="Line-10-decoration-1" d="M591,408 L602.128434,406.659124 L599.842534,401.111633 L591,408 Z" stroke="#000000" stroke-width="2" stroke-linecap="square"></path>
            <path d="M855.333333,608 L855.333333,751" id="Line-10" stroke="#000000" stroke-width="2" stroke-linecap="square"></path>
            <path id="Line-10-decoration-1" d="M855.333333,751 L858.333333,740.2 L852.333333,740.2 L855.333333,751 Z" stroke="#000000" stroke-width="2" stroke-linecap="square"></path>
            <path d="M859,849 L859,918" id="Line-10" stroke="#000000" stroke-width="2" stroke-linecap="square"></path>
            <path id="Line-10-decoration-1" d="M859,918 L862,907.2 L856,907.2 L859,918 Z" stroke="#000000" stroke-width="2" stroke-linecap="square"></path>
            <path d="M860,1020 L860,1089" id="Line-10" stroke="#000000" stroke-width="2" stroke-linecap="square"></path>
            <path id="Line-10-decoration-1" d="M860,1089 L863,1078.2 L857,1078.2 L860,1089 Z" stroke="#000000" stroke-width="2" stroke-linecap="square"></path>
            <path d="M1297,951 L1404,951" id="Line-10" stroke="#000000" stroke-width="2" stroke-linecap="square"></path>
            <path id="Line-10-decoration-1" d="M1404,951 L1393.2,948 L1393.2,954 L1404,951 Z" stroke="#000000" stroke-width="2" stroke-linecap="square"></path>
            <path d="M1296,1126 L1403,1126" id="Line-10" stroke="#000000" stroke-width="2" stroke-linecap="square"></path>
            <path id="Line-10-decoration-1" d="M1403,1126 L1392.2,1123 L1392.2,1129 L1403,1126 Z" stroke="#000000" stroke-width="2" stroke-linecap="square"></path>
            <path d="M1185,1177 L1185,1258" id="Line-10" stroke="#000000" stroke-width="2" stroke-linecap="square"></path>
            <path id="Line-10-decoration-1" d="M1185,1258 L1188,1247.2 L1182,1247.2 L1185,1258 Z" stroke="#000000" stroke-width="2" stroke-linecap="square"></path>
            <path d="M1186,999 L1186,1079" id="Line-10" stroke="#000000" stroke-width="2" stroke-linecap="square"></path>
            <path id="Line-10-decoration-1" d="M1186,1079 L1189,1068.2 L1183,1068.2 L1186,1079 Z" stroke="#000000" stroke-width="2" stroke-linecap="square"></path>
            <path d="M861,1185 L861,1254" id="Line-10" stroke="#000000" stroke-width="2" stroke-linecap="square"></path>
            <path id="Line-10-decoration-1" d="M861,1254 L864,1243.2 L858,1243.2 L861,1254 Z" stroke="#000000" stroke-width="2" stroke-linecap="square"></path>
            <polyline id="Line-10" stroke="#000000" stroke-width="2" stroke-linecap="square" points="961 800 1190 800 1190 888"></polyline>
            <path id="Line-10-decoration-1" d="M1190,888 L1193,877.2 L1187,877.2 L1190,888 Z" stroke="#000000" stroke-width="2" stroke-linecap="square"></path>
            <ellipse id="Oval" stroke="#000000" stroke-width="2" cx="859.5" cy="38" rx="107.5" ry="38"></ellipse>
            <polygon id="Triangle" stroke="#000000" stroke-width="2" points="858.5 265 966 308.417133 858.5 353 751 308.417133"></polygon>
            <polygon id="Triangle" stroke="#000000" stroke-width="2" points="858.5 265 966 308.417133 858.5 353 751 308.417133"></polygon>
            <polygon id="Triangle" stroke="#000000" stroke-width="2" points="858.5 265 966 308.417133 858.5 353 751 308.417133"></polygon>
            <polygon id="Triangle" stroke="#000000" stroke-width="2" points="557.5 752 665 795.417133 557.5 840 450 795.417133"></polygon>
            <polygon id="Triangle" stroke="#000000" stroke-width="2" points="856.5 756 964 799.417133 856.5 844 749 799.417133"></polygon>
            <polygon id="Triangle" stroke="#000000" stroke-width="2" points="860.5 926 968 969.417133 860.5 1014 753 969.417133"></polygon>
            <polygon id="Triangle" stroke="#000000" stroke-width="2" points="1184.5 1083 1292 1126.41713 1184.5 1171 1077 1126.41713"></polygon>
            <polygon id="Triangle" stroke="#000000" stroke-width="2" points="1184.5 908 1292 951.417133 1184.5 996 1077 951.417133"></polygon>
            <polygon id="Triangle" stroke="#000000" stroke-width="2" points="860.5 1093 968 1136.41713 860.5 1181 753 1136.41713"></polygon>
            <path d="M551.5,942.5 L553,944" id="Line-9" stroke="#979797" stroke-width="2" stroke-linecap="square"></path>
            <text id="GPL" font-family="PingFangSC-Regular, PingFang SC" font-size="20" font-weight="normal" fill="#000000">
                <tspan x="532" y="800">GPL</tspan>
            </text>
            <polygon id="Triangle" stroke="#000000" stroke-width="2" points="275.5 265 383 308.417133 275.5 353 168 308.417133"></polygon>
            <text id="你是在逗我吗？" font-family="PingFangSC-Regular, PingFang SC" font-size="20" font-weight="normal" fill="#000000">
                <tspan x="212" y="313">你是在逗我吗？</tspan>
            </text>
            <polygon id="Triangle" stroke="#000000" stroke-width="2" points="563.5 265 671 308.417133 563.5 353 456 308.417133"></polygon>
            <polygon id="Triangle" stroke="#000000" stroke-width="2" points="859.5 135 967 178.417133 859.5 223 752 178.417133"></polygon>
            <polygon id="Triangle" stroke="#000000" stroke-width="2" points="1157.5 267 1265 310.417133 1157.5 355 1050 310.417133"></polygon>
            <text id="他人可以修改、-商用、发表？" font-family="PingFangSC-Regular, PingFang SC" font-size="18" font-weight="normal" fill="#000000">
                <tspan x="1107" y="307">他人可以修改、</tspan>
                <tspan x="1107" y="332">商用、发表？</tspan>
            </text>
            <polyline id="Line" stroke="#000000" stroke-width="2" stroke-linecap="square" points="974.496094 178.5 1158 178.5 1158 263.804688"></polyline>
            <path id="Line-decoration-1" d="M1158,263.804688 L1161,253.004687 L1155,253.004687 L1158,263.804688 Z" stroke="#000000" stroke-width="2" stroke-linecap="square"></path>
            <text id="文档：HTML、Markdown,-…" font-family="PingFangSC-Regular, PingFang SC" font-size="20" font-weight="normal" fill="#000000">
                <tspan x="978" y="171">文档：HTML、Markdown, …</tspan>
            </text>
            <text id="Creative-Common" font-family="PingFangSC-Regular, PingFang SC" font-size="18" font-weight="normal" fill="#000000">
                <tspan x="1082" y="468">Creative Common</tspan>
            </text>
            <text id="GFDL" font-family="PingFangSC-Regular, PingFang SC" font-size="18" font-weight="normal" fill="#000000">
                <tspan x="1379" y="465">GFDL</tspan>
            </text>
            <polyline id="Line-2" stroke="#000000" stroke-width="2" stroke-linecap="square" points="1268 311 1403 311 1403 432"></polyline>
            <path id="Line-2-decoration-1" d="M1403,432 L1406,421.2 L1400,421.2 L1403,432 Z" stroke="#000000" stroke-width="2" stroke-linecap="square"></path>
            <path d="M1158,359.5 L1158,433.5" id="Line-3" stroke="#000000" stroke-width="2" stroke-linecap="square"></path>
            <path id="Line-3-decoration-1" d="M1158,433.5 L1161,422.7 L1155,422.7 L1158,433.5 Z" stroke="#000000" stroke-width="2" stroke-linecap="square"></path>
            <text id="看情况" font-family="PingFangSC-Regular, PingFang SC" font-size="18" font-weight="normal" fill="#000000">
                <tspan x="1165" y="398">看情况</tspan>
            </text>
            <text id="可以，但要标注版权" font-family="PingFangSC-Regular, PingFang SC" font-size="18" font-weight="normal" fill="#000000">
                <tspan x="1274" y="302">可以，但要标注版权</tspan>
            </text>
            <text id="你要开源的是代码？" font-family="PingFangSC-Regular, PingFang SC" font-size="18" font-weight="normal" fill="#040404">
                <tspan x="781" y="184">你要开源的是代码？</tspan>
            </text>
            <text id="你关心代码的死活吗？" font-family="PingFangSC-Regular, PingFang SC" font-size="18" font-weight="normal" fill="#040404">
                <tspan x="770" y="43">你关心代码的死活吗？</tspan>
            </text>
            <path d="M749.5,41 L666,41" id="Line-4" stroke="#000000" stroke-width="2" stroke-linecap="square"></path>
            <path id="Line-4-decoration-1" d="M666,41 L676.8,44 L676.8,38 L666,41 Z" stroke="#000000" stroke-width="2" stroke-linecap="square"></path>
            <path d="M970,40 L1050,40" id="Line-4" stroke="#000000" stroke-width="2" stroke-linecap="square"></path>
            <path id="Line-4-decoration-1" d="M1050,40 L1039.2,37 L1039.2,43 L1050,40 Z" stroke="#000000" stroke-width="2" stroke-linecap="square"></path>
            <path d="M859,78 L859,131" id="Line-5" stroke="#000000" stroke-width="2" stroke-linecap="square"></path>
            <path id="Line-5-decoration-1" d="M859,131 L862,120.2 L856,120.2 L859,131 Z" stroke="#000000" stroke-width="2" stroke-linecap="square"></path>
            <path d="M859,223 L859,261" id="Line-5" stroke="#000000" stroke-width="2" stroke-linecap="square"></path>
            <path id="Line-5-decoration-1" d="M859,261 L862,250.2 L856,250.2 L859,261 Z" stroke="#000000" stroke-width="2" stroke-linecap="square"></path>
            <text id="不关心" font-family="PingFangSC-Regular, PingFang SC" font-size="18" font-weight="normal" fill="#040404">
                <tspan x="683" y="34">不关心</tspan>
            </text>
            <text id="不关心" font-family="PingFangSC-Regular, PingFang SC" font-size="18" font-weight="normal" fill="#040404">
                <tspan x="981" y="31">不关心</tspan>
            </text>
            <text id="关心" font-family="PingFangSC-Regular, PingFang SC" font-size="18" font-weight="normal" fill="#040404">
                <tspan x="872" y="111">关心</tspan>
            </text>
            <text id="脚本型语言" font-family="PingFangSC-Regular, PingFang SC" font-size="20" font-weight="normal" fill="#000000">
                <tspan x="620" y="171">脚本型语言</tspan>
            </text>
            <text id="编译型语言" font-family="PingFangSC-Regular, PingFang SC" font-size="20" font-weight="normal" fill="#000000">
                <tspan x="753" y="244">编译型语言</tspan>
            </text>
            <polyline id="Line-6" stroke="#0C0C0C" stroke-width="2" stroke-linecap="square" points="747.487438 178.5 563.983532 178.5 563.983532 254.5"></polyline>
            <path id="Line-6-decoration-1" d="M563.983532,254.5 L566.983532,243.7 L560.983532,243.7 L563.983532,254.5 Z" stroke="#0C0C0C" stroke-width="2" stroke-linecap="square"></path>
            <text id="申请了专利？" font-family="PingFangSC-Regular, PingFang SC" font-size="20" font-weight="normal" fill="#000000">
                <tspan x="500" y="315">申请了专利？</tspan>
            </text>
            <path d="M671.5,308 L746.5,308" id="Line-7" stroke="#000000" stroke-width="2" stroke-linecap="square"></path>
            <path id="Line-7-decoration-1" d="M746.5,308 L735.7,305 L735.7,311 L746.5,308 Z" stroke="#000000" stroke-width="2" stroke-linecap="square"></path>
            <text id="否" font-family="PingFangSC-Regular, PingFang SC" font-size="20" font-weight="normal" fill="#000000">
                <tspan x="700" y="302">否</tspan>
            </text>
            <path d="M454,308 L385,308" id="Line-8" stroke="#010101" stroke-width="2" stroke-linecap="square"></path>
            <path id="Line-8-decoration-1" d="M385,308 L395.8,311 L395.8,305 L385,308 Z" stroke="#010101" stroke-width="2" stroke-linecap="square"></path>
            <text id="是" font-family="PingFangSC-Regular, PingFang SC" font-size="20" font-weight="normal" fill="#000000">
                <tspan x="410" y="295">是</tspan>
            </text>
            <text id="想直接通过-开源软件赚钱？" font-family="PingFangSC-Regular, PingFang SC" font-size="20" font-weight="normal" fill="#000000">
                <tspan x="798" y="303">想直接通过</tspan>
                <tspan x="798" y="331">开源软件赚钱？</tspan>
            </text>
            <polygon id="Triangle" stroke="#000000" stroke-width="2" points="855.5 516 963 559.417133 855.5 604 748 559.417133"></polygon>
            <text id="你是开源狂热粉？" font-family="PingFangSC-Regular, PingFang SC" font-size="20" font-weight="normal" fill="#000000">
                <tspan x="795" y="566">你是开源狂热粉？</tspan>
            </text>
            <text id="是的，让全世界开源" font-family="PingFangSC-Regular, PingFang SC" font-size="18" font-weight="normal" fill="#000000">
                <tspan x="626" y="735">是的，让全世界开源</tspan>
            </text>
            <text id="不确定，我再想想" font-family="PingFangSC-Regular, PingFang SC" font-size="18" font-weight="normal" fill="#000000">
                <tspan x="864" y="678">不确定，我再想想</tspan>
            </text>
            <path d="M449,793 L200,673" id="Line-11" stroke="#000000" stroke-width="2" stroke-linecap="square"></path>
            <path id="Line-11-decoration-1" d="M200,673 L208.426695,680.391266 L211.031546,674.986199 L200,673 Z" stroke="#000000" stroke-width="2" stroke-linecap="square"></path>
            <path d="M450,805 L203,930" id="Line-11" stroke="#000000" stroke-width="2" stroke-linecap="square"></path>
            <path id="Line-11-decoration-1" d="M203,930 L213.990922,927.800082 L211.281663,922.446586 L203,930 Z" stroke="#000000" stroke-width="2" stroke-linecap="square"></path>
            <path d="M506,822 L198,1042" id="Line-11" stroke="#000000" stroke-width="2" stroke-linecap="square"></path>
            <path id="Line-11-decoration-1" d="M198,1042 L208.532036,1038.16383 L205.044607,1033.28143 L198,1042 Z" stroke="#000000" stroke-width="2" stroke-linecap="square"></path>
            <path d="M446,796 L202,796" id="Line-11" stroke="#000000" stroke-width="2" stroke-linecap="square"></path>
            <path id="Line-11-decoration-1" d="M202,796 L212.8,799 L212.8,793 L202,796 Z" stroke="#000000" stroke-width="2" stroke-linecap="square"></path>
            <text id="只引用库不修改" font-family="PingFangSC-Regular, PingFang SC" font-size="18" font-weight="normal" fill="#040404">
                <tspan x="269" y="692">只引用库不修改</tspan>
            </text>
            <text id="不需要开源硬件" font-family="PingFangSC-Regular, PingFang SC" font-size="18" font-weight="normal" fill="#040404">
                <tspan x="269" y="824">不需要开源硬件</tspan>
            </text>
            <text id="需要开源硬件" font-family="PingFangSC-Regular, PingFang SC" font-size="18" font-weight="normal" fill="#040404">
                <tspan x="269" y="920">需要开源硬件</tspan>
            </text>
            <text id="需要开源服务器源码" font-family="PingFangSC-Regular, PingFang SC" font-size="18" font-weight="normal" fill="#040404">
                <tspan x="269" y="1019">需要开源服务器源码</tspan>
            </text>
            <text id="GPLv2" font-family="PingFangSC-Regular, PingFang SC" font-size="18" font-weight="normal" fill="#040404">
                <tspan x="65" y="799">GPLv2</tspan>
            </text>
            <text id="GPLv3" font-family="PingFangSC-Regular, PingFang SC" font-size="18" font-weight="normal" fill="#040404">
                <tspan x="64" y="931">GPLv3</tspan>
            </text>
            <text id="（所有相关组件都开源）" font-family="PingFangSC-Regular, PingFang SC" font-size="18" font-weight="normal" fill="#040404">
                <tspan x="493" y="664">（所有相关组件都开源）</tspan>
            </text>
            <text id="他人修改代码后-是否可以闭源" font-family="PingFangSC-Regular, PingFang SC" font-size="18" font-weight="normal" fill="#000000">
                <tspan x="801" y="795">他人修改代码后</tspan>
                <tspan x="801" y="820">是否可以闭源</tspan>
            </text>
            <text id="否" font-family="PingFangSC-Regular, PingFang SC" font-size="18" font-weight="normal" fill="#000000">
                <tspan x="870" y="886">否</tspan>
            </text>
            <text id="是" font-family="PingFangSC-Regular, PingFang SC" font-size="18" font-weight="normal" fill="#000000">
                <tspan x="866" y="1058">是</tspan>
            </text>
            <text id="否" font-family="PingFangSC-Regular, PingFang SC" font-size="18" font-weight="normal" fill="#000000">
                <tspan x="868" y="1225">否</tspan>
            </text>
            <text id="是" font-family="PingFangSC-Regular, PingFang SC" font-size="18" font-weight="normal" fill="#000000">
                <tspan x="1025" y="794">是</tspan>
            </text>
            <polyline id="Line-12" stroke="#000000" stroke-width="2" stroke-linecap="square" points="753.999956 1137 558 1137 558 844"></polyline>
            <path id="Line-12-decoration-1" d="M558,844 L555,854.8 L561,854.8 L558,844 Z" stroke="#000000" stroke-width="2" stroke-linecap="square"></path>
            <text id="新增代码是否-采用相同许可" font-family="PingFangSC-Regular, PingFang SC" font-size="18" font-weight="normal" fill="#000000">
                <tspan x="810" y="963">新增代码是否</tspan>
                <tspan x="810" y="988">采用相同许可</tspan>
            </text>
            <text id="是的，相关代码必须开源" font-family="PingFangSC-Regular, PingFang SC" font-size="18" font-weight="normal" fill="#040404">
                <tspan x="564" y="1128">是的，相关代码必须开源</tspan>
            </text>
            <text id="Public-Domain" font-family="PingFangSC-Regular, PingFang SC" font-size="18" font-weight="normal" fill="#040404">
                <tspan x="1098" y="48">Public Domain</tspan>
            </text>
            <text id="修改源码后-上下游是否开源" font-family="PingFangSC-Regular, PingFang SC" font-size="18" font-weight="normal" fill="#000000">
                <tspan x="803" y="1128">修改源码后</tspan>
                <tspan x="803" y="1153">上下游是否开源</tspan>
            </text>
            <text id="MPL" font-family="PingFangSC-Regular, PingFang SC" font-size="18" font-weight="normal" fill="#040404">
                <tspan x="840" y="1294">MPL</tspan>
            </text>
            <path d="M771,1262 C767.134007,1262 764,1265.13401 764,1269 L764,1308.99949 C764,1312.86548 767.134007,1315.99949 771,1315.99949 L950.999956,1315.99949 C954.865949,1315.99949 957.999956,1312.86548 957.999956,1308.99949 L957.999956,1269 C957.999956,1265.13401 954.865949,1262 950.999956,1262 L771,1262 Z" id="Rectangle-2" stroke="#000000" stroke-width="2"></path>
            <text id="MPL" font-family="PingFangSC-Regular, PingFang SC" font-size="18" font-weight="normal" fill="#040404">
                <tspan x="840" y="1294">MPL</tspan>
            </text>
            <path d="M1413,1098 C1409.13401,1098 1406,1101.13401 1406,1105 L1406,1144.99949 C1406,1148.86548 1409.13401,1151.99949 1413,1151.99949 L1592.99996,1151.99949 C1596.86595,1151.99949 1599.99996,1148.86548 1599.99996,1144.99949 L1599.99996,1105 C1599.99996,1101.13401 1596.86595,1098 1592.99996,1098 L1413,1098 Z" id="Rectangle-2" stroke="#000000" stroke-width="2"></path>
            <text id="MIT" font-family="PingFangSC-Regular, PingFang SC" font-size="18" font-weight="normal" fill="#040404">
                <tspan x="1487" y="1132">MIT</tspan>
            </text>
            <path d="M1097,1263 C1093.13401,1263 1090,1266.13401 1090,1270 L1090,1309.99949 C1090,1313.86548 1093.13401,1316.99949 1097,1316.99949 L1276.99996,1316.99949 C1280.86595,1316.99949 1283.99996,1313.86548 1283.99996,1309.99949 L1283.99996,1270 C1283.99996,1266.13401 1280.86595,1263 1276.99996,1263 L1097,1263 Z" id="Rectangle-2" stroke="#000000" stroke-width="2"></path>
            <text id="BSD" font-family="PingFangSC-Regular, PingFang SC" font-size="18" font-weight="normal" fill="#040404">
                <tspan x="1166" y="1295">BSD</tspan>
            </text>
            <text id="修改的文件-是否要版权声明" font-family="PingFangSC-Regular, PingFang SC" font-size="18" font-weight="normal" fill="#000000">
                <tspan x="1133" y="943">修改的文件</tspan>
                <tspan x="1133" y="968">是否要版权声明</tspan>
            </text>
            <text id="Apache" font-family="PingFangSC-Regular, PingFang SC" font-size="18" font-weight="normal" fill="#000000">
                <tspan x="1471" y="956">Apache</tspan>
            </text>
            <text id="是的，并能新增协议" font-family="PingFangSC-Regular, PingFang SC" font-size="18" font-weight="normal" fill="#000000">
                <tspan x="1254" y="1000">是的，并能新增协议</tspan>
            </text>
            <text id="否" font-family="PingFangSC-Regular, PingFang SC" font-size="18" font-weight="normal" fill="#000000">
                <tspan x="1196" y="1044">否</tspan>
            </text>
            <text id="是否能使用原名-作为广告" font-family="PingFangSC-Regular, PingFang SC" font-size="18" font-weight="normal" fill="#000000">
                <tspan x="1119" y="1118">是否能使用原名</tspan>
                <tspan x="1119" y="1143">作为广告</tspan>
            </text>
            <text id="是" font-family="PingFangSC-Regular, PingFang SC" font-size="18" font-weight="normal" fill="#040404">
                <tspan x="1332" y="1117">是</tspan>
            </text>
            <text id="否" font-family="PingFangSC-Regular, PingFang SC" font-size="18" font-weight="normal" fill="#040404">
                <tspan x="1196" y="1226">否</tspan>
            </text>
            <text id="多重授权" font-family="PingFangSC-Regular, PingFang SC" font-size="20" font-weight="normal" fill="#000000">
                <tspan x="518" y="451">多重授权</tspan>
            </text>
            <text id="是的" font-family="PingFangSC-Regular, PingFang SC" font-size="20" font-weight="normal" fill="#000000">
                <tspan x="618" y="375">是的</tspan>
            </text>
            <text id="不。我还可以间接赚钱" font-family="PingFangSC-Regular, PingFang SC" font-size="20" font-weight="normal" fill="#000000">
                <tspan x="831" y="466">不。我还可以间接赚钱</tspan>
            </text>
            <text id="@Phodal-https://gith" font-family="PingFangSC-Regular, PingFang SC" font-size="20" font-weight="normal" fill="#000000">
                <tspan x="0" y="1227">@Phodal</tspan>
                <tspan x="0" y="1255">https://github.com/phodal/licenses</tspan>
                <tspan x="0" y="1283">CC-BY-ND</tspan>
            </text>
        </g>
    </g>
</svg>